<?xml version="1.0" encoding="UTF-8"?>
<svg xmlns="http://www.w3.org/2000/svg" version="1.1" viewBox="0 0 928.6 201.6">
  <defs>
    <style>
      .cls-1 {
        fill: #492a77;
      }

      .cls-2 {
        fill: #ff8324;
      }
    </style>
  </defs>
  <!-- Generator: Adobe Illustrator 28.6.0, SVG Export Plug-In . SVG Version: 1.2.0 Build 709)  -->
  <g>
    <g id="Capa_1">
      <g>
        <g>
          <path class="cls-1" d="M83.4,160.5V33.7h25.8v126.8h-25.8Z"/>
          <path class="cls-1" d="M223,57.1h-38.2v103.4h-25.7V57.1h-38.8v-23.4h102.7v23.4Z"/>
          <g>
            <rect class="cls-2" x="306.9" y="118.6" width="67.1" height="21.8" transform="translate(469.9 -210.9) rotate(90)"/>
            <path class="cls-1" d="M351.3,91v12.6c0,11.7-2.7,22.1-8.2,31-5.5,9-13.1,15.9-22.7,20.9-9.7,5-20.7,7.4-33.2,7.4s-24.3-2.7-34.1-8.1c-9.8-5.4-17.3-13-22.7-22.8-5.3-9.8-8-21.2-8-34.1s2.8-24.8,8.3-34.9c5.5-10.1,13.3-17.9,23.3-23.5,10-5.6,21.5-8.4,34.4-8.4s19.9,1.8,28.5,5.5c8.6,3.7,15.6,8.8,21.1,15.5,5.5,6.7,9.1,14.3,10.6,23h-27.2c-2.3-6.4-6.4-11.4-12.5-15-6.1-3.6-13.1-5.4-21.1-5.4-12,0-21.4,3.9-28.4,11.7-7,7.8-10.4,18.2-10.4,31.1s3.5,23.1,10.4,30.5c6.9,7.4,16.4,11.1,28.4,11.1s17.4-2.3,23.9-6.8c6.5-4.5,10.4-11,11.8-19.4h-39.6v-21.9h67.3Z"/>
          </g>
        </g>
        <path class="cls-1" d="M360.2,31.2h24.7v131.9h-24.7V31.2Z"/>
        <path class="cls-1" d="M399.8,91.7c4.1-7.1,9.8-12.7,17.3-16.7,7.4-4,15.9-6,25.3-6s17.9,2,25.4,6c7.5,4,13.2,9.6,17.3,16.7,4.1,7.1,6.1,15.2,6.1,24.3s-2,17.2-6.1,24.3c-4.1,7.1-9.8,12.7-17.3,16.8-7.4,4-15.9,6-25.4,6s-17.9-2-25.2-6c-7.4-4-13.1-9.6-17.3-16.7-4.2-7.1-6.2-15.2-6.2-24.4s2-17.2,6.1-24.3ZM425.4,134.1c4.4,4.8,10.1,7.2,17,7.2s12.7-2.4,17.1-7.2c4.4-4.8,6.6-10.8,6.6-18.1s-2.2-13.4-6.5-18.1c-4.3-4.7-10.1-7-17.2-7s-12.7,2.4-17.1,7c-4.4,4.7-6.6,10.7-6.6,18.1s2.2,13.3,6.6,18.1Z"/>
        <path class="cls-1" d="M680.9,154.7c-8,5.6-17.6,8.4-28.7,8.4s-17.3-2-24.4-5.9c-7.1-4-12.6-9.5-16.4-16.7-3.9-7.2-5.8-15.4-5.8-24.7s1.9-17.6,5.8-24.7c3.9-7.1,9.3-12.6,16.3-16.4,7-3.8,15-5.7,23.9-5.7s16.4,1.8,23,5.4c6.7,3.6,11.8,8.6,15.5,15.1,3.7,6.5,5.6,13.8,5.6,22s-.4,7.1-1.1,11.5h-64.8c.3,6.1,2.4,10.9,6.5,14.6,4.1,3.7,9.3,5.6,15.8,5.6s8.9-1,12.4-2.9c3.5-1.9,6-4.5,7.4-7.8h23.9c-2,9.3-7,16.7-15.1,22.3ZM670.6,106.5c-.1-5.4-2-9.7-5.7-12.7-3.7-3.1-8.3-4.6-14-4.6s-10.8,1.6-14.6,4.7c-3.8,3.2-5.9,7.4-6.1,12.6h40.5Z"/>
        <path class="cls-1" d="M750.7,70.9c-5.3,0-9.9,1.2-13.8,3.5-3.9,2.3-6.5,5.7-7.8,10.2v-.3c0,0,0-12.4,0-12.4h-24.3v91.2h24.7v-45.7c0-7.8,2.1-13.8,6.3-18.1,4.2-4.3,10.3-6.4,18.2-6.4s3.7,0,4.7.2v-21.2c-2-.6-4.7-1-8.1-1Z"/>
        <path class="cls-1" d="M779.2,155.1c-7-5.3-10.8-12.3-11.4-21.1h24.3c.1,3.4,1.5,6.1,4.2,8,2.6,1.9,6,2.8,10,2.8s6.8-.8,9.1-2.3c2.3-1.5,3.4-3.7,3.4-6.4s-.9-4.7-2.6-5.9c-1.7-1.2-4-2.1-6.9-2.8l-14.7-3.4c-8.4-2-14.7-5.2-18.7-9.7-4-4.5-6-9.9-6-16.4s3.3-15.7,10-21c6.7-5.3,15.4-8,26.2-8s19.2,2.6,25.8,7.9c6.7,5.3,10.1,12.2,10.4,20.8h-24.1c-.1-3.2-1.3-5.7-3.6-7.5-2.3-1.9-5.3-2.8-9.1-2.8s-5.9.7-7.9,2.2c-2,1.4-3,3.5-3,6.1s.8,4.3,2.4,5.4c1.6,1.1,4,2,7.4,2.8l17,4c7.8,1.9,13.5,5.1,17.2,9.6,3.7,4.5,5.5,10,5.5,16.3,0,8.9-3.4,16.1-10.3,21.5-6.9,5.4-15.9,8.1-27.3,8.1s-20.3-2.6-27.3-7.9Z"/>
        <path class="cls-1" d="M591.3,91.4c-3.7-7.2-8.8-12.7-15.5-16.6-6.7-3.9-14.2-5.8-22.6-5.8s-11.6,1-16.6,2.8c-4.9,1.9-8.9,4.6-11.9,8.2V31.2h-24.5v131.9h24.9v-10.8c2.7,2.8,6,5.1,9.9,6.9,5.6,2.6,11.7,3.9,18.4,3.9s15.9-1.9,22.5-5.8c6.6-3.9,11.7-9.4,15.4-16.7,3.7-7.2,5.5-15.4,5.5-24.6s-1.8-17.4-5.5-24.6ZM565.3,133.8c-4.3,4.6-9.8,6.9-16.7,6.9s-12.7-2.3-17-6.8c-4.3-4.5-6.5-10.6-6.5-18.1s2.1-13.6,6.4-18.1c4.2-4.5,9.9-6.8,16.9-6.8s12.7,2.3,16.9,6.9c4.3,4.6,6.4,10.6,6.4,18s-2.1,13.4-6.4,18Z"/>
      </g>
    </g>
  </g>
</svg>