<svg width="32" height="32" fill="none" xmlns="http://www.w3.org/2000/svg"><path fill-rule="evenodd" clip-rule="evenodd" d="M13.129 30.455V20.84h-2.496a.5.5 0 01-.5-.5V17.25a.5.5 0 01.5-.5h2.496v-2.802c0-2.744 1.769-5.264 5.846-5.264 1.05 0 1.925.064 2.424.111a.484.484 0 01.436.498l-.073 2.875a.5.5 0 01-.504.489c-.487-.004-1.278-.009-2.111-.009-1.47 0-1.706.68-1.706 1.807v2.295h3.902a.5.5 0 01.499.524l-.145 3.088a.5.5 0 01-.5.477h-3.756v9.828c7.423-.726 13.226-7 13.226-14.632C30.667 7.916 24.1 1.333 16 1.333S1.333 7.916 1.333 16.035c0 7.134 5.07 13.082 11.796 14.42z" fill="#fff"/></svg>