<svg width="32" height="32" fill="none" xmlns="http://www.w3.org/2000/svg"><path fill-rule="evenodd" clip-rule="evenodd" d="M9.94 5.09a4.848 4.848 0 00-4.85 4.85v12.12a4.848 4.848 0 004.85 4.849h12.12a4.848 4.848 0 004.85-4.848V9.939a4.849 4.849 0 00-4.85-4.848H9.94zM2.666 9.94a7.273 7.273 0 017.272-7.273h12.122a7.273 7.273 0 017.272 7.272v12.122a7.273 7.273 0 01-7.272 7.272H9.939a7.273 7.273 0 01-7.272-7.272V9.939zm13.919 2.41a3.636 3.636 0 10-1.067 7.194 3.636 3.636 0 001.067-7.193zm-3.325-1.782a6.06 6.06 0 115.583 10.76 6.06 6.06 0 01-5.583-10.76zm9.406-2.447a1.212 1.212 0 100 2.424h.012a1.212 1.212 0 000-2.424h-.012z" fill="#fff"/></svg>