<svg width="32" height="32" fill="none" xmlns="http://www.w3.org/2000/svg"><path fill-rule="evenodd" clip-rule="evenodd" d="M16 30.667c8.1 0 14.667-6.567 14.667-14.667S24.1 1.333 16 1.333 1.333 7.9 1.333 16 7.9 30.667 16 30.667zm3.827-19.074c.566.468 1.27.746 2.033.746h.007V14.723c-.747 0-1.472-.16-2.157-.478a5.423 5.423 0 01-1.224-.784l.01 5.352c-.004 1.206-.438 2.338-1.224 3.19a4.042 4.042 0 01-2.328 1.28 3.946 3.946 0 01-3.192-.9 4.443 4.443 0 01-.394-.38c-.851-.924-1.29-2.176-1.217-3.494a4.73 4.73 0 011.032-2.71c.807-.993 1.935-1.544 3.142-1.544.213 0 .423.018.63.051v2.432a1.824 1.824 0 00-.623-.11c-1.103 0-1.994.988-1.978 2.2.01.775.396 1.452.965 1.826a1.82 1.82 0 001.636.197c.787-.286 1.355-1.098 1.355-2.056l.002-3.585V8.667h2.181c.002.237.024.469.065.693.164.908.63 1.696 1.28 2.233zm2.04.745z" fill="#fff"/></svg>