<svg width="32" height="32" fill="none" xmlns="http://www.w3.org/2000/svg"><path fill-rule="evenodd" clip-rule="evenodd" d="M16.337 6.301H15.911a100.331 100.331 0 00-1.147.007c-.751.008-1.774.025-2.858.057-1.082.032-2.235.08-3.243.154-.977.071-1.912.172-2.505.33l-.016.004a4.2 4.2 0 00-2.946 3.094 33.331 33.331 0 00-.529 6.074c-.012 2.052.165 4.101.529 6.12.007.036.015.072.025.107a4.2 4.2 0 002.93 2.901l.007.002c.593.158 1.528.259 2.505.33a78.09 78.09 0 003.243.154 153.241 153.241 0 003.757.063l.248.001h.426l.9-.008c.75-.008 1.773-.024 2.857-.056a78.088 78.088 0 003.243-.154c.977-.071 1.912-.172 2.505-.33l.016-.005a4.2 4.2 0 002.946-3.094c.359-1.989.536-4.007.529-6.028a33.326 33.326 0 00-.529-6.121l-.016-.073a4.2 4.2 0 00-2.97-3.031c-.583-.143-1.51-.234-2.488-.3a85.639 85.639 0 00-3.239-.14 167.928 167.928 0 00-3.754-.058zm-2.288 5.122a1.111 1.111 0 00-1.66.966v7.266a1.111 1.111 0 001.66.966l6.389-3.633a1.111 1.111 0 000-1.932l-6.389-3.633z" fill="#fff"/></svg>